<svg width="644.69375px" height="123.2px" xmlns="http://www.w3.org/2000/svg" viewBox="-72.34687500000001 13.399999999999999 644.69375 123.2" style="background: rgb(29, 29, 31);" preserveAspectRatio="xMidYMid"><defs><linearGradient id="editing-sticker-gradient" x1="0.412288488583179" y1="0.7868914267889107" x2="0.587711511416821" y2="0.2131085732110894"><stop offset="0" stop-color="#00adb5"></stop><stop offset="1" stop-color="#21a6c1"></stop></linearGradient><filter id="editing-sticker" x="-100%" y="-100%" width="300%" height="300%"><feMorphology operator="erode" radius="1" in="SourceAlpha" result="alpha-erode"></feMorphology><feConvolveMatrix order="3,3" divisor="1" kernelMatrix="0 1 0 1 1 1 0 1 0" in="alpha-erode" result="alpha-round"></feConvolveMatrix><feMorphology operator="dilate" radius="3.5" in="alpha-round" result="dilate-shadow"></feMorphology><feGaussianBlur in="dilate-shadow" stdDeviation="1.5" result="shadow"></feGaussianBlur><feFlood flood-color="#fff" result="flood-sticker"></feFlood><feComposite operator="in" in="flood-sticker" in2="alpha-round" result="comp-sticker"></feComposite><feMorphology operator="dilate" radius="3" in="comp-sticker" result="morph-sticker"></feMorphology><feConvolveMatrix order="3,3" divisor="1" kernelMatrix="0 1 0 1 1 1 0 1 0" in="morph-sticker" result="sticker"></feConvolveMatrix><feMerge><feMergeNode in="shadow"></feMergeNode><feMergeNode in="sticker"></feMergeNode><feMergeNode in="SourceGraphic"></feMergeNode></feMerge></filter></defs><g filter="url(#editing-sticker)"><g transform="translate(22.463806867599487, 103.92000007629395)"><path d="M46.69 0L46.69 0L32.91 0L32.91 0Q33.09-7.69 33.09-15.66L33.09-15.66L33.09-15.66Q33.09-23.63 32.31-33.75L32.31-33.75L32.31-33.75Q33.38-35.97 35.28-40.50L35.28-40.50L35.28-40.50Q35.50-41 36.41-41.77L36.41-41.77L36.41-41.77Q37.31-42.53 38-42.53L38-42.53L47.56-42.53L47.56-42.53Q47.34-38.41 47.34-33.38L47.34-33.38L47.34-33.38Q47.34-17.63 49.44-2.06L49.44-2.06L49.44-2.06Q49.44-1.66 48.44-0.83L48.44-0.83L48.44-0.83Q47.44 0 46.69 0ZM25.25-1.63L25.25-1.63L25.25-1.63Q25.03-1.16 24.28-0.58L24.28-0.58L24.28-0.58Q23.53 0 23.09 0L23.09 0L18.13 0L18.13 0Q16.81-7.78 14.72-16.38L14.72-16.38L14.72-16.38Q12.63-24.97 10.56-30.53L10.56-30.53L10.56-30.53Q10.69-31.25 11.39-34.92L11.39-34.92L11.39-34.92Q12.09-38.59 12.38-40.50L12.38-40.50L12.38-40.50Q12.47-40.94 13.44-41.73L13.44-41.73L13.44-41.73Q14.41-42.53 15.09-42.53L15.09-42.53L24.19-42.53L24.19-42.53Q26.34-30.03 27.77-25.64L27.77-25.64L27.77-25.64Q29.19-21.25 30.38-18.63L30.38-18.63L30.38-18.63Q27.38-9.66 25.25-1.63ZM9.88-22.59L9.88-22.59L9.88-22.59Q10.03-14.78 10.45-10.66L10.45-10.66L10.45-10.66Q10.88-6.53 12.28-2.06L12.28-2.06L12.28-2.06Q12.28-1.66 11.27-0.83L11.27-0.83L11.27-0.83Q10.25 0 9.50 0L9.50 0L-0.47 0L-0.47 0Q2.63-7.38 4.38-11.95L4.38-11.95L4.38-11.95Q6.13-16.53 7.16-20.56L7.16-20.56L7.16-20.56Q7.16-20.97 8.16-21.78L8.16-21.78L8.16-21.78Q9.16-22.59 9.88-22.59ZM93.94-1.25L93.94-1.25L93.94-1.25Q87.84 0.06 80.84 0.06L80.84 0.06L80.84 0.06Q79.25-2.09 79.25-4.47L79.25-4.47L79.25-4.47Q79.25-6.84 80.66-16.52L80.66-16.52L80.66-16.52Q82.06-26.19 82.09-29.38L82.09-29.38L82.09-29.38Q82.09-29.78 83.13-30.59L83.13-30.59L83.13-30.59Q84.16-31.41 84.84-31.41L84.84-31.41L84.84-31.41Q91.53-31.41 97.44-29.63L97.44-29.63L97.44-29.63Q97.31-28.63 95.78-21.67L95.78-21.67L95.78-21.67Q94.25-14.72 94.25-10.52L94.25-10.52L94.25-10.52Q94.25-6.31 96.50-4.06L96.50-4.06L96.50-4.06Q96.50-3.63 95.63-2.61L95.63-2.61L95.63-2.61Q94.75-1.59 93.94-1.25ZM79.47-31.84L79.47-31.84L79.47-31.84Q75.75-29.09 73.83-24.38L73.83-24.38L73.83-24.38Q71.91-19.66 71.91-15.11L71.91-15.11L71.91-15.11Q71.91-10.56 72.92-6.95L72.92-6.95L72.92-6.95Q73.94-3.34 75.66-2.13L75.66-2.13L75.66-2.13Q75.66-1.66 74.66-0.83L74.66-0.83L74.66-0.83Q73.66 0 72.94 0L72.94 0L72.94 0Q65.78 0 61.45-3.59L61.45-3.59L61.45-3.59Q57.13-7.19 57.13-13.41L57.13-13.41L57.13-13.41Q57.13-21.13 62.97-26.38L62.97-26.38L62.97-26.38Q65.78-28.91 70.05-30.38L70.05-30.38L70.05-30.38Q74.31-31.84 79.47-31.84ZM143.13-11.47L143.13-11.47L142.91-6.84L142.91-6.84Q142.91-5.38 143.55-4.70L143.55-4.70L143.55-4.70Q144.19-4.03 145.72-4.03L145.72-4.03L145.72-4.03Q145.41-2.09 144.69-0.84L144.69-0.84L144.69-0.84Q140.25 0.47 135.41 0.47L135.41 0.47L135.41 0.47Q130.56 0.47 129.17-0.58L129.17-0.58L129.17-0.58Q127.78-1.63 127.78-3.36L127.78-3.36L127.78-3.36Q127.78-5.09 128.20-7.88L128.20-7.88L128.20-7.88Q128.63-10.66 128.63-12.28L128.63-12.28L128.63-12.28Q128.63-15.16 125.38-15.75L125.38-15.75L125.38-15.75Q125.66-17.28 126.44-18.19L126.44-18.19L126.44-18.19Q129.44-19.09 130.88-20.91L130.88-20.91L130.88-20.91Q132.31-22.72 132.31-24.36L132.31-24.36L132.31-24.36Q132.31-26 131.69-26.89L131.69-26.89L131.69-26.89Q131.06-27.78 130.19-27.78L130.19-27.78L130.19-27.78Q129.31-27.78 128.47-27.50L128.47-27.50L128.47-27.50Q128.75-29.38 129.53-30.31L129.53-30.31L129.53-30.31Q133.22-32.09 136.70-32.09L136.70-32.09L136.70-32.09Q140.19-32.09 142.22-30.53L142.22-30.53L142.22-30.53Q144.25-28.97 144.25-26.55L144.25-26.55L144.25-26.55Q144.25-24.13 143.17-22.48L143.17-22.48L143.17-22.48Q142.09-20.84 140.31-19.81L140.31-19.81L140.31-19.81Q136.81-17.72 132.28-17.28L132.28-17.28L132.28-17.28Q137.59-17.28 140.36-15.75L140.36-15.75L140.36-15.75Q143.13-14.22 143.13-11.47ZM121.25-2.13L121.25-2.13L121.25-2.13Q121.25-1.69 120.25-0.84L120.25-0.84L120.25-0.84Q119.25 0 118.50 0L118.50 0L105.63 0L105.63 0Q107-5.88 108.80-19.63L108.80-19.63L108.80-19.63Q110.59-33.38 111.28-41.19L111.28-41.19L111.28-41.19Q111.28-41.59 112.28-42.42L112.28-42.42L112.28-42.42Q113.28-43.25 114-43.25L114-43.25L127.16-43.25L127.16-43.25Q125.50-36.38 123.72-23.42L123.72-23.42L123.72-23.42Q121.94-10.47 121.25-2.13ZM169.97-32.13L169.97-32.13L169.97-32.13Q168.19-30.44 168.19-28.56L168.19-28.56L168.19-28.56Q168.19-24.19 174.84-19.50L174.84-19.50L174.84-19.50Q177.84-17.38 179.53-15.88L179.53-15.88L179.53-15.88Q183.31-12.50 183.31-8.55L183.31-8.55L183.31-8.55Q183.31-4.59 179.36-2.17L179.36-2.17L179.36-2.17Q175.41 0.25 168.28 0.25L168.28 0.25L168.28 0.25Q169.09-1.56 169.09-3.03L169.09-3.03L169.09-3.03Q169.09-4.50 168.27-5.89L168.27-5.89L168.27-5.89Q167.44-7.28 166.13-8.44L166.13-8.44L166.13-8.44Q164.81-9.59 163.22-10.77L163.22-10.77L163.22-10.77Q161.63-11.94 160.03-13.16L160.03-13.16L160.03-13.16Q158.44-14.38 157.13-15.66L157.13-15.66L157.13-15.66Q154.16-18.56 154.16-21.94L154.16-21.94L154.16-21.94Q154.16-25.66 156.91-28L156.91-28L156.91-28Q161.63-31.97 169.97-32.13ZM174.81-32.03L174.81-32.03L174.81-32.03Q179.22-32.03 182.38-30.30L182.38-30.30L182.38-30.30Q185.53-28.56 185.53-26.06L185.53-26.06L185.53-26.06Q185.53-22.19 178.28-21.31L178.28-21.31L178.28-21.31Q178.34-21.53 178.34-22L178.34-22L178.34-22Q178.34-24.38 176.84-26.39L176.84-26.39L176.84-26.39Q175.34-28.41 172.66-29.63L172.66-29.63L172.66-29.63Q172.66-30.13 173.34-31L173.34-31L173.34-31Q174.03-31.88 174.81-32.03ZM162.81 0.13L162.81 0.13L162.81 0.13Q161.25 0.25 160.50 0.25L160.50 0.25L160.50 0.25Q155.97 0.25 152.97-1.23L152.97-1.23L152.97-1.23Q149.97-2.72 149.97-5.09L149.97-5.09L149.97-5.09Q149.97-9.88 157.19-11.13L157.19-11.13L157.19-11.13Q156.94-9.78 156.98-8.77L156.98-8.77L156.98-8.77Q157.03-7.75 157.67-6.77L157.67-6.77L157.67-6.77Q158.31-5.78 159.47-5L159.47-5L159.47-5Q161.53-3.63 164.59-2.47L164.59-2.47L164.59-2.47Q164.59-2 164.02-1.08L164.02-1.08L164.02-1.08Q163.44-0.16 162.81 0.13ZM202.78 0L189.66 0L189.66 0Q192.38-11.50 193.81-29L193.81-29L193.81-29Q193.81-29.41 194.84-30.22L194.84-30.22L194.84-30.22Q195.88-31.03 196.56-31.03L196.56-31.03L209.66-31.03L209.66-31.03Q206.94-19.34 205.50-2.06L205.50-2.06L205.50-2.06Q205.50-1.66 204.50-0.83L204.50-0.83L204.50-0.83Q203.50 0 202.78 0L202.78 0ZM207.91-35.25L207.91-35.25L194.84-35.25L194.84-35.25Q195.44-37.66 195.63-39.97L195.63-39.97L195.63-39.97Q195.63-40.41 196.63-41.23L196.63-41.23L196.63-41.23Q197.63-42.06 198.34-42.06L198.34-42.06L211.47-42.06L211.47-42.06Q211.06-40.59 210.63-37.31L210.63-37.31L210.63-37.31Q210.63-36.88 209.64-36.06L209.64-36.06L209.64-36.06Q208.66-35.25 207.91-35.25ZM229.97 0L229.97 0L216.84 0L216.84 0Q220.22-14.28 221.44-28.91L221.44-28.91L221.44-28.91Q221.44-29.28 222.44-30.05L222.44-30.05L222.44-30.05Q223.44-30.81 224.55-31L224.55-31L224.55-31Q225.66-31.19 229.98-31.52L229.98-31.52L229.98-31.52Q234.31-31.84 236.72-31.84L236.72-31.84L236.72-31.84Q234-18 232.69-2.06L232.69-2.06L232.69-2.06Q232.69-1.66 231.69-0.83L231.69-0.83L231.69-0.83Q230.69 0 229.97 0ZM250.75 0L238.38 0L238.38 0Q241.63-18.78 241.63-23.14L241.63-23.14L241.63-23.14Q241.63-27.50 239.59-27.50L239.59-27.50L239.59-27.50Q240.03-29.19 240.97-30.34L240.97-30.34L240.97-30.34Q244.16-31.84 248.20-31.84L248.20-31.84L248.20-31.84Q252.25-31.84 254.17-29.88L254.17-29.88L254.17-29.88Q256.09-27.91 256.09-23.91L256.09-23.91L256.09-23.91Q256.09-21.81 254.94-14.02L254.94-14.02L254.94-14.02Q253.78-6.22 253.50-2.06L253.50-2.06L253.50-2.06Q253.50-1.66 252.50-0.83L252.50-0.83L252.50-0.83Q251.50 0 250.75 0L250.75 0ZM261.84 0.06L261.84 0.06L261.84 0.06Q260-1.78 260-4L260-4L260-4Q260-6.22 261.19-14.17L261.19-14.17L261.19-14.17Q262.38-22.13 262.38-24L262.38-24L262.38-24Q262.38-25.88 261.28-26.69L261.28-26.69L261.28-26.69Q260.19-27.50 258.75-27.50L258.75-27.50L258.75-27.50Q259.03-29.31 259.78-30.34L259.78-30.34L259.78-30.34Q260.94-30.91 263.58-31.38L263.58-31.38L263.58-31.38Q266.22-31.84 268.34-31.84L268.34-31.84L268.34-31.84Q272.53-31.84 274.61-29.94L274.61-29.94L274.61-29.94Q276.69-28.03 276.69-23.91L276.69-23.91L276.69-23.91Q276.69-21.56 275.58-15.94L275.58-15.94L275.58-15.94Q274.47-10.31 274.47-9L274.47-9L274.47-9Q274.47-7.69 274.58-7.03L274.58-7.03L274.58-7.03Q274.69-6.38 274.77-6.02L274.77-6.02L274.77-6.02Q274.84-5.66 275.20-5.16L275.20-5.16L275.20-5.16Q275.56-4.66 275.64-4.55L275.64-4.55L275.64-4.55Q275.72-4.44 276.28-3.91L276.28-3.91L276.28-3.91Q276.84-3.38 276.91-3.31L276.91-3.31L276.91-3.31Q276.91-2.91 275.98-1.89L275.98-1.89L275.98-1.89Q275.06-0.88 274.31-0.53L274.31-0.53L274.31-0.53Q270.28 0.06 261.84 0.06ZM300.16 0L300.16 0L286 0L286 0Q290.19-16.88 292.13-40.47L292.13-40.47L292.13-40.47Q292.13-40.91 293.14-41.72L293.14-41.72L293.14-41.72Q294.16-42.53 294.84-42.53L294.84-42.53L309.06-42.53L309.06-42.53Q304.63-23.69 302.94-2.09L302.94-2.09L302.94-2.09Q302.94-1.66 301.92-0.83L301.92-0.83L301.92-0.83Q300.91 0 300.16 0ZM325.63-15.41L325.63-15.41L325.19-7.75L325.19-7.75Q325.19-6.06 325.81-5.03L325.81-5.03L325.81-5.03Q326.44-4 328.13-3.75L328.13-3.75L328.13-3.75Q327.81-1.78 327.09-0.53L327.09-0.53L327.09-0.53Q321.44 0.78 316.72 0.78L316.72 0.78L316.72 0.78Q309.34 0.78 309.34-4.47L309.34-4.47L309.34-4.47Q309.34-6.47 310.05-10.36L310.05-10.36L310.05-10.36Q310.75-14.25 310.75-15.72L310.75-15.72L310.75-15.72Q310.75-19.63 307.97-19.94L307.97-19.94L307.97-19.94Q309.19-24.09 317.69-40.47L317.69-40.47L317.69-40.47Q317.97-41.03 318.84-41.78L318.84-41.78L318.84-41.78Q319.72-42.53 320.44-42.53L320.44-42.53L331.88-42.53L331.88-42.53Q323.44-30.53 314.06-22.41L314.06-22.41L314.06-22.41Q315.41-22.50 316.63-22.50L316.63-22.50L316.63-22.50Q321.41-22.50 323.52-20.73L323.52-20.73L323.52-20.73Q325.63-18.97 325.63-15.41ZM371.09-1.25L371.09-1.25L371.09-1.25Q365 0.06 358 0.06L358 0.06L358 0.06Q356.41-2.09 356.41-4.47L356.41-4.47L356.41-4.47Q356.41-6.84 357.81-16.52L357.81-16.52L357.81-16.52Q359.22-26.19 359.25-29.38L359.25-29.38L359.25-29.38Q359.25-29.78 360.28-30.59L360.28-30.59L360.28-30.59Q361.31-31.41 362-31.41L362-31.41L362-31.41Q368.69-31.41 374.59-29.63L374.59-29.63L374.59-29.63Q374.47-28.63 372.94-21.67L372.94-21.67L372.94-21.67Q371.41-14.72 371.41-10.52L371.41-10.52L371.41-10.52Q371.41-6.31 373.66-4.06L373.66-4.06L373.66-4.06Q373.66-3.63 372.78-2.61L372.78-2.61L372.78-2.61Q371.91-1.59 371.09-1.25ZM356.63-31.84L356.63-31.84L356.63-31.84Q352.91-29.09 350.98-24.38L350.98-24.38L350.98-24.38Q349.06-19.66 349.06-15.11L349.06-15.11L349.06-15.11Q349.06-10.56 350.08-6.95L350.08-6.95L350.08-6.95Q351.09-3.34 352.81-2.13L352.81-2.13L352.81-2.13Q352.81-1.66 351.81-0.83L351.81-0.83L351.81-0.83Q350.81 0 350.09 0L350.09 0L350.09 0Q342.94 0 338.61-3.59L338.61-3.59L338.61-3.59Q334.28-7.19 334.28-13.41L334.28-13.41L334.28-13.41Q334.28-21.13 340.13-26.38L340.13-26.38L340.13-26.38Q342.94-28.91 347.20-30.38L347.20-30.38L347.20-30.38Q351.47-31.84 356.63-31.84ZM406.72-1.91L406.72-1.91L406.72-1.91Q400.31 0.16 393.94 0.16L393.94 0.16L393.94 0.16Q381.66 0.16 381.66-9.63L381.66-9.63L381.66-9.63Q381.66-11.75 382.56-18.11L382.56-18.11L382.56-18.11Q383.47-24.47 383.47-26.89L383.47-26.89L383.47-26.89Q383.47-29.31 383.25-30.59L383.25-30.59L383.25-30.59Q387.53-32.50 390.78-34.91L390.78-34.91L390.78-34.91Q394.03-37.31 397.09-40.81L397.09-40.81L397.09-40.81Q398.66-41.28 401.16-41.28L401.16-41.28L401.16-41.28Q399.06-33.91 397.83-26.13L397.83-26.13L397.83-26.13Q396.59-18.34 396.59-14.64L396.59-14.64L396.59-14.64Q396.59-10.94 397.13-9.30L397.13-9.30L397.13-9.30Q397.66-7.66 398.84-6.75L398.84-6.75L398.84-6.75Q400.94-5.16 405.47-5.16L405.47-5.16L405.47-5.16Q406.56-5.16 407.78-5.25L407.78-5.25L407.78-5.25Q407.50-3.19 406.72-1.91ZM401.25-23.63L401.25-23.63L401.25-23.63Q401.53-27.97 402.66-31.69L402.66-31.69L402.66-31.69Q405.72-30.41 409.50-29.88L409.50-29.88L409.50-29.88Q409.75-29.41 409.97-28.33L409.97-28.33L409.97-28.33Q410.19-27.25 410.19-26.63L410.19-26.63L410.19-26.63Q405.84-25.44 401.25-23.63ZM416.06-9.81L416.06-9.81L416.06-9.81Q416.06-12.38 416.98-17.16L416.98-17.16L416.98-17.16Q417.91-21.94 417.91-24.06L417.91-24.06L417.91-24.06Q417.91-27.38 416.16-28.09L416.16-28.09L416.16-28.09Q416.16-28.59 417.06-29.92L417.06-29.92L417.06-29.92Q417.97-31.25 418.63-31.25L418.63-31.25L430.78-31.25L430.78-31.25Q431.50-31 432-30.27L432-30.27L432-30.27Q432.50-29.53 432.50-28.22L432.50-28.22L432.50-28.22Q432.50-26.91 431.88-24L431.88-24L431.88-24Q430-15.22 430-10.97L430-10.97L430-10.97Q430-9 431.17-7.94L431.17-7.94L431.17-7.94Q432.34-6.88 434-6.88L434-6.88L434-6.88Q433.75-5.06 432.94-4.06L432.94-4.06L432.94-4.06Q429.56-1.94 425.06-1.94L425.06-1.94L425.06-1.94Q416.06-1.94 416.06-9.81ZM439.63-29.44L439.63-29.44L439.63-29.44Q439.63-29.81 440.61-30.47L440.61-30.47L440.61-30.47Q441.59-31.13 442.38-31.13L442.38-31.13L454.66-31.13L454.66-31.13Q452.16-19.19 450.50-2.78L450.50-2.78L450.50-2.78Q449.25 9.34 442.94 12.63L442.94 12.63L442.94 12.63Q439.13 14.59 432.88 14.59L432.88 14.59L432.88 14.59Q431.91 14.59 429.78 14.47L429.78 14.47L429.78 14.47Q432.44 11.34 433.86 7.08L433.86 7.08L433.86 7.08Q435.28 2.81 436.42-3.05L436.42-3.05L436.42-3.05Q437.56-8.91 438.59-16.95L438.59-16.95L438.59-16.95Q439.63-25 439.66-26.75L439.66-26.75L439.66-26.75Q439.69-28.50 439.63-29.44ZM423.50 13.69L423.50 13.69L423.50 13.69Q419.38 13.34 416.89 11.78L416.89 11.78L416.89 11.78Q414.41 10.22 414.41 8.02L414.41 8.02L414.41 8.02Q414.41 5.81 416.38 4.28L416.38 4.28L416.38 4.28Q420.22 1.28 427.09 1.28L427.09 1.28L427.09 1.28Q429.28 1.28 431.53 1.66L431.53 1.66L431.53 1.66Q429.72 3.41 428.63 5.48L428.63 5.48L428.63 5.48Q427.53 7.56 427.53 9.03L427.53 9.03L427.53 9.03Q427.53 10.50 427.81 11.59L427.81 11.59L427.81 11.59Q427.81 12.06 426.23 12.88L426.23 12.88L426.23 12.88Q424.66 13.69 423.50 13.69Z" fill="url(#editing-sticker-gradient)" stroke="#dce4eb" stroke-width="3"></path></g></g><style>text {
  font-size: 64px;
  font-family: Arial Black;
  dominant-baseline: central;
  text-anchor: middle;
}</style></svg>